<?xml version="1.0" encoding="utf-8"?>
<!-- Generator: Adobe Illustrator 24.0.1, SVG Export Plug-In . SVG Version: 6.00 Build 0)  -->
<svg version="1.1" id="Layer_1" xmlns="http://www.w3.org/2000/svg" xmlns:xlink="http://www.w3.org/1999/xlink" x="0px" y="0px"
	 viewBox="0 0 1024 768" style="enable-background:new 0 0 1024 768;" xml:space="preserve">
<style type="text/css">
	.st0{fill:#FFFFFF;}
	.st1{opacity:0.75;}
	.st2{fill:#BCBEC0;}
	.st3{fill:#E6E7E8;}
	.st4{display:none;opacity:0.3;fill:#BCBEC0;enable-background:new    ;}
</style>
<title>gdn_</title>
<g id="Layer_13">
	<path class="st0" d="M0,0v768h1024V0H0z M997,271.9H27v-250h970V271.9z"/>
	<g class="st1">
		<rect x="26.9" y="294.6" class="st2" width="211.1" height="106"/>
		<rect x="26.9" y="393.6" class="st2" width="211.1" height="51.3"/>
		<rect x="26.9" y="461.8" class="st2" width="211.1" height="10.7"/>
		<rect x="26.9" y="478.8" class="st3" width="211.1" height="10.7"/>
		<rect x="26.9" y="495.8" class="st3" width="211.1" height="10.7"/>
		<rect x="26.9" y="512.8" class="st3" width="211.1" height="10.7"/>
		<rect x="26.9" y="529.8" class="st3" width="211.1" height="10.7"/>
		<rect x="26.9" y="546.8" class="st3" width="153" height="10.7"/>
		<rect x="260" y="362.7" class="st2" width="372.5" height="10.7"/>
		<rect x="260" y="379.8" class="st3" width="372.5" height="10.7"/>
		<rect x="260" y="396.8" class="st3" width="372.5" height="10.7"/>
		<rect x="260" y="413.8" class="st3" width="372.5" height="10.7"/>
		<rect x="260" y="639.6" class="st3" width="372.5" height="10.7"/>
		<rect x="260" y="656.6" class="st3" width="372.5" height="10.7"/>
		<rect x="260" y="673.6" class="st3" width="372.5" height="10.7"/>
		<rect x="260" y="695.7" class="st3" width="372.5" height="10.7"/>
		<rect x="260" y="712.7" class="st3" width="372.5" height="10.7"/>
		<rect x="260" y="729.7" class="st3" width="172" height="10.7"/>
		<rect x="260" y="430.8" class="st3" width="372.5" height="10.7"/>
		<rect x="260" y="447.8" class="st3" width="372.5" height="10.7"/>
		<rect x="260" y="465" class="st3" width="372.5" height="10.7"/>
		<rect x="260" y="482" class="st3" width="268.3" height="10.7"/>
		<rect x="260" y="586.1" class="st2" width="372.5" height="10.7"/>
		<rect x="260" y="603.1" class="st3" width="372.5" height="10.7"/>
		<rect x="260" y="620.1" class="st3" width="372.5" height="10.7"/>
		<rect x="26.9" y="577.9" class="st2" width="211.1" height="10.7"/>
		<rect x="26.9" y="594.9" class="st3" width="211.1" height="10.7"/>
		<rect x="26.9" y="611.9" class="st3" width="211.1" height="10.7"/>
		<rect x="26.9" y="628.9" class="st3" width="211.1" height="10.7"/>
		<rect x="26.9" y="645.9" class="st3" width="117" height="10.7"/>
		<rect x="26.9" y="679.3" class="st2" width="211.1" height="66.4"/>
		<rect x="257.5" y="518.7" class="st2" width="371.5" height="52.1"/>
		<rect x="257.5" y="294.6" class="st2" width="375.1" height="51.3"/>
		<rect x="651.2" y="447.6" class="st2" width="345.7" height="10.7"/>
		<rect x="651.2" y="464.7" class="st3" width="345.7" height="10.7"/>
		<rect x="651.2" y="481.7" class="st3" width="345.7" height="10.7"/>
		<rect x="651.2" y="498.7" class="st3" width="345.7" height="10.7"/>
		<rect x="651.2" y="724.5" class="st3" width="160" height="10.7"/>
		<rect x="651.2" y="515.7" class="st3" width="345.7" height="10.7"/>
		<rect x="651.2" y="532.7" class="st3" width="345.7" height="10.7"/>
		<rect x="651.2" y="549.9" class="st3" width="345.7" height="10.7"/>
		<rect x="651.2" y="566.9" class="st3" width="240.7" height="10.7"/>
		<rect x="651.2" y="671" class="st2" width="345.7" height="10.7"/>
		<rect x="651.2" y="688" class="st3" width="345.7" height="10.7"/>
		<rect x="651.2" y="705" class="st3" width="345.7" height="10.7"/>
		<rect x="648.9" y="601.6" class="st2" width="344.8" height="52.1"/>
		<rect x="648.9" y="294.6" class="st2" width="348" height="129.9"/>
	</g>
	<polygon class="st4" points="0,0 1024,768 0,768 	"/>
</g>
</svg>
